<?xml version="1.0" standalone="no"?>
<!DOCTYPE svg PUBLIC "-//W3C//DTD SVG 20010904//EN"
 "http://www.w3.org/TR/2001/REC-SVG-20010904/DTD/svg10.dtd">
<svg version="1.0" xmlns="http://www.w3.org/2000/svg"
 width="200.000000pt" height="200.000000pt" viewBox="0 0 200.000000 200.000000"
 preserveAspectRatio="xMidYMid meet">
<metadata>
Created by potrace 1.14, written by Peter Selinger 2001-2017
</metadata>
<g transform="translate(0.000000,200.000000) scale(0.100000,-0.100000)"
fill="#000000" stroke="none">
<path d="M903 1905 c-101 -21 -111 -21 -163 -7 -35 10 -101 16 -185 16 -134 1
-199 -10 -285 -46 l-45 -19 54 -19 c64 -23 113 -59 151 -111 l28 -40 -30 -32
c-44 -46 -132 -183 -162 -250 -70 -160 -89 -341 -52 -517 73 -351 320 -589
716 -690 65 -17 89 -28 114 -54 17 -18 49 -42 71 -54 37 -19 56 -24 136 -36
l27 -4 -5 77 c-8 117 25 173 169 281 l82 62 -77 -6 c-141 -12 -278 -62 -364
-132 -43 -35 -45 -36 -91 -24 -195 46 -345 238 -386 492 l-4 27 40 -15 c22 -8
57 -14 76 -14 l36 0 -32 33 c-44 45 -64 101 -67 181 -4 123 33 213 125 304 60
58 133 96 226 117 61 15 201 21 249 11 11 -2 42 -7 68 -10 84 -13 166 -35 259
-70 132 -49 244 -52 268 -5 10 19 6 26 -38 69 -28 27 -78 67 -113 89 -35 23
-63 49 -64 58 -11 139 -96 234 -269 303 -145 58 -291 69 -463 35z"/>
</g>
</svg>
